<svg width="16" height="16" viewBox="0 0 16 16" fill="none" xmlns="http://www.w3.org/2000/svg">
<path fill-rule="evenodd" clip-rule="evenodd" d="M4 0C1.79086 0 0 1.79086 0 4V12C0 14.2091 1.79086 16 4 16H12C14.2091 16 16 14.2091 16 12V4C16 1.79086 14.2091 0 12 0H4ZM5.07999 14C5.36667 14.0667 5.64999 14.1 5.92999 14.1C6.47665 14.1 6.91666 13.9333 7.25 13.6C7.59 13.26 7.76001 12.7167 7.76001 11.97V6.64999H6.64999V11.69C6.64999 12.05 6.61667 12.3267 6.54999 12.52C6.48999 12.7133 6.39667 12.8467 6.26999 12.92C6.14334 12.9933 5.97665 13.03 5.76999 13.03C5.54999 13.03 5.36334 12.9967 5.20999 12.93C5.06332 12.8567 4.92999 12.75 4.81 12.61L4.35999 13.64C4.55334 13.8067 4.79333 13.9267 5.07999 14ZM9.88937 13.89C10.2827 14.03 10.6794 14.1 11.0794 14.1C11.5327 14.1 11.936 14.02 12.2894 13.86C12.6494 13.7 12.9294 13.4633 13.1294 13.15C13.336 12.8367 13.4394 12.4567 13.4394 12.01C13.4394 11.7233 13.3794 11.46 13.2594 11.22C13.1394 10.98 12.9827 10.7733 12.7894 10.6C12.6494 10.4667 12.4994 10.3533 12.3394 10.26C12.1794 10.16 11.9494 10.0267 11.6494 9.85999C11.336 9.68668 11.086 9.54001 10.8994 9.42001C10.7194 9.29999 10.5694 9.16 10.4494 9C10.3294 8.83334 10.2694 8.64667 10.2694 8.44C10.2694 8.14667 10.3627 7.92667 10.5494 7.78C10.7427 7.62668 11.006 7.54999 11.3394 7.54999C11.5994 7.54999 11.8427 7.60001 12.0694 7.70001C12.3027 7.79333 12.4827 7.90668 12.6094 8.04001L13.1394 7.13C12.6594 6.73666 12.076 6.54001 11.3894 6.54001C10.7494 6.54001 10.2194 6.70999 9.79938 7.04999C9.37936 7.38333 9.16937 7.86667 9.16937 8.5C9.16937 9.26666 9.49271 9.86667 10.1394 10.3C10.2794 10.3933 10.5394 10.5333 10.9194 10.72C11.2394 10.88 11.4861 11.0167 11.6594 11.13C11.8327 11.2367 11.9794 11.3733 12.0994 11.54C12.2194 11.7067 12.2794 11.9033 12.2794 12.13C12.2794 12.4233 12.166 12.6533 11.9394 12.82C11.7194 12.9867 11.4327 13.07 11.0794 13.07C10.806 13.07 10.5194 13.0033 10.2194 12.87C9.92606 12.73 9.70938 12.5967 9.56937 12.47L9.03937 13.42C9.21271 13.5933 9.49603 13.75 9.88937 13.89Z" fill="#F9F9FF"/>
</svg>
